<svg xmlns="http://www.w3.org/2000/svg" viewBox="0 0 410.344 410.344" width="512" height="512"><path d="M205.212 0C119.37.088 49.816 69.678 49.772 155.52c0 83.52 143.36 245.36 149.44 252.16a8 8 0 0 0 11.921 0c6.08-6.88 149.44-168.64 149.44-252.16C360.528 69.709 291.022.132 205.212 0zm0 390.16c-27.36-32-139.44-166.32-139.44-234.72C65.772 78.429 128.201 16 205.212 16s139.44 62.429 139.44 139.44c0 68.4-112.08 202.88-139.44 234.72z" fill="#1aefbd"/><path d="M208.012 78c-46.524.044-84.204 37.796-84.16 84.32.044 46.524 37.796 84.204 84.32 84.16 46.493-.044 84.16-37.747 84.16-84.24-.088-46.519-37.801-84.196-84.32-84.24zm0 152.56c-37.688 0-68.24-30.552-68.24-68.24s30.552-68.24 68.24-68.24 68.24 30.552 68.24 68.24c-.044 37.67-30.571 68.196-68.24 68.24z" fill="#1aefbd"/></svg>