<svg xmlns="http://www.w3.org/2000/svg" viewBox="0 0 512.001 512.001" width="512" height="512"><path fill="#89c732" d="M181.331 160h96v21.333h-96z"/><path d="M458.667 0H53.333C23.893.035.035 23.893 0 53.333v405.333C.035 488.107 23.893 511.965 53.333 512H224v-21.333H53.333c-17.673 0-32-14.327-32-32V53.333c0-17.673 14.327-32 32-32h405.333c17.673 0 32 14.327 32 32v181.333H512V53.333C511.966 23.893 488.107.035 458.667 0z" fill="#89c732"/><path fill="#89c732" d="M320 42.667h21.333v117.33H320zM192 213.334V42.667h-21.333v170.667c0 11.782 9.551 21.333 21.333 21.333h21.333v-21.333H192zM138.667 362.667h-64c-5.891 0-10.667 4.776-10.667 10.667v64C64 443.224 68.776 448 74.667 448h64c5.891 0 10.667-4.776 10.667-10.667v-64c-.001-5.891-4.776-10.666-10.667-10.666zm-10.667 64H85.333V384H128v42.667zM501.333 309.333H461.29a112.321 112.321 0 0 0-1.856-4.437l28.331-28.32c4.164-4.165 4.164-10.917 0-15.083l-45.259-45.259a10.977 10.977 0 0 0-15.083 0l-28.32 28.331a159.39 159.39 0 0 0-4.437-1.867v-40.032c0-5.891-4.776-10.667-10.667-10.667h-64c-5.891 0-10.667 4.776-10.667 10.667v40.032a153.996 153.996 0 0 0-4.437 1.867l-28.32-28.331a10.977 10.977 0 0 0-15.083 0l-45.259 45.259c-4.164 4.165-4.164 10.917 0 15.083l28.331 28.32a113.598 113.598 0 0 0-1.856 4.437h-40.043c-5.891 0-10.667 4.776-10.667 10.667v64c0 5.891 4.776 10.667 10.667 10.667h40.043a112.321 112.321 0 0 0 1.856 4.437l-28.331 28.32c-4.164 4.165-4.164 10.917 0 15.083l45.259 45.259c4.165 4.164 10.917 4.164 15.083 0l28.32-28.331c1.483.661 2.955 1.269 4.437 1.856v40.043c0 5.891 4.776 10.667 10.667 10.667h64c5.891 0 10.667-4.776 10.667-10.667v-40.043a112.321 112.321 0 0 0 4.437-1.856l28.32 28.331c4.165 4.164 10.917 4.164 15.083 0l45.259-45.259c4.164-4.165 4.164-10.917 0-15.083l-28.331-28.32a113.598 113.598 0 0 0 1.856-4.437h40.043c5.891 0 10.667-4.776 10.667-10.667v-64c0-5.891-4.776-10.667-10.667-10.667zm-10.666 63.99h-36.885a10.667 10.667 0 0 0-10.176 7.467 96.584 96.584 0 0 1-6.507 15.563 10.667 10.667 0 0 0 1.909 12.48l26.133 26.133-30.165 30.165-26.133-26.133a10.667 10.667 0 0 0-12.48-1.909 96.546 96.546 0 0 1-15.563 6.507 10.667 10.667 0 0 0-7.467 10.176v36.896h-42.667l.011-36.875c0-4.659-3.023-8.778-7.467-10.176a96.584 96.584 0 0 1-15.563-6.507 10.667 10.667 0 0 0-12.48 1.909l-26.133 26.133-30.165-30.165 26.133-26.133a10.666 10.666 0 0 0 1.909-12.48 96.546 96.546 0 0 1-6.507-15.563 10.667 10.667 0 0 0-10.176-7.467h-36.896v-42.667h36.885c4.659 0 8.778-3.023 10.176-7.467a96.584 96.584 0 0 1 6.507-15.563 10.667 10.667 0 0 0-1.909-12.48l-26.133-26.133 30.165-30.165 26.133 26.133a10.666 10.666 0 0 0 12.48 1.909 95.468 95.468 0 0 1 15.563-6.507 10.667 10.667 0 0 0 7.467-10.176v-36.896h42.656v36.885c0 4.659 3.023 8.778 7.467 10.176a95.542 95.542 0 0 1 15.563 6.507 10.667 10.667 0 0 0 12.48-1.909l26.133-26.133 30.165 30.165-26.133 26.133a10.666 10.666 0 0 0-1.909 12.48 96.546 96.546 0 0 1 6.507 15.563 10.667 10.667 0 0 0 10.176 7.467h36.896v42.657z"/><path d="M352 298.667c-29.455 0-53.333 23.878-53.333 53.333s23.878 53.333 53.333 53.333c29.441-.035 53.298-23.893 53.333-53.333 0-29.455-23.877-53.333-53.333-53.333zM352 384c-17.673 0-32-14.327-32-32 0-17.673 14.327-32 32-32 17.673 0 32 14.327 32 32 0 17.673-14.326 32-32 32z" fill="#89c732"/></svg>