<?xml version="1.0" encoding="iso-8859-1"?>
<!-- Generator: Adobe Illustrator 19.0.0, SVG Export Plug-In . SVG Version: 6.00 Build 0)  -->
<svg xmlns="http://www.w3.org/2000/svg" xmlns:xlink="http://www.w3.org/1999/xlink" version="1.1" id="Capa_1" x="0px" y="0px" viewBox="0 0 512 512" style="enable-background:new 0 0 512 512;" xml:space="preserve" width="512px" height="512px">
<g>
	<g>
		<path d="M496,16H112c-8.824,0-16,7.176-16,16v176c0,8.824,7.176,16,16,16h88v-16h-88V32h384v176h-72v16h72c8.824,0,16-7.176,16-16    V32C512,23.176,504.824,16,496,16z" fill="#1a84db"/>
	</g>
</g>
<g>
	<g>
		<path d="M96,336v-16H80v24c0,4.416,3.584,8,8,8h24v-16H96z" fill="#1a84db"/>
	</g>
</g>
<g>
	<g>
		<path d="M176,248h-24v16h16v16h16v-24C184,251.584,180.416,248,176,248z" fill="#1a84db"/>
	</g>
</g>
<g>
	<g>
		<rect x="103.71" y="292.007" transform="matrix(0.7071 -0.7071 0.7071 0.7071 -173.4778 181.2005)" width="56.559" height="16" fill="#1a84db"/>
	</g>
</g>
<g>
	<g>
		<path d="M325.656,306.344l-16-16l-11.312,11.312L308.688,312l-10.344,10.344l11.312,11.312l16-16    C328.784,314.528,328.784,309.472,325.656,306.344z" fill="#1a84db"/>
	</g>
</g>
<g>
	<g>
		<path d="M325.656,109.656l-11.312-11.312l-16,16c-3.128,3.128-3.128,8.184,0,11.312l16,16l11.312-11.312L315.312,120    L325.656,109.656z" fill="#1a84db"/>
	</g>
</g>
<g>
	<g>
		<path d="M226.928,238.6C224.984,231.272,224,223.672,224,216c0-7.024,0.832-14.008,2.472-20.776    c7.528-31.128,31.408-55.704,62.32-64.128l-4.208-15.44c-36.528,9.96-64.76,39.008-73.664,75.8c-1.936,8-2.92,16.256-2.92,24.544    c0,9.056,1.168,18.04,3.464,26.696c9.472,35.76,37.528,63.992,73.232,73.68l4.184-15.44    C258.68,292.736,234.936,268.848,226.928,238.6z" fill="#1a84db"/>
	</g>
</g>
<g>
	<g>
		<path d="M413.288,192.296c-8.744-37.496-37.296-66.928-74.52-76.816l-4.112,15.464c31.496,8.36,55.648,33.264,63.048,64.984    C399.224,202.464,400,209.216,400,216c0,7.224-0.88,14.408-2.608,21.36c-7.8,31.304-32.056,55.776-63.312,63.848l4,15.496    c36.936-9.544,65.616-38.464,74.832-75.472C414.968,233.008,416,224.52,416,216C416,208,415.088,200.016,413.288,192.296z" fill="#1a84db"/>
	</g>
</g>
<g>
	<g>
		<path d="M345.856,178.88l-34.392,41.272l-17.808-17.808l-11.312,11.312l24,24C307.848,239.16,309.88,240,312,240    c0.12,0,0.24,0,0.36-0.008c2.248-0.104,4.344-1.144,5.784-2.872l40-48L345.856,178.88z" fill="#1a84db"/>
	</g>
</g>
<g>
	<g>
		<path d="M456,96c-13.232,0-24,10.768-24,24s10.768,24,24,24s24-10.768,24-24S469.232,96,456,96z M456,128c-4.408,0-8-3.592-8-8    s3.592-8,8-8c4.408,0,8,3.592,8,8S460.408,128,456,128z" fill="#1a84db"/>
	</g>
</g>
<g>
	<g>
		<path d="M408,48H136c-4.416,0-8,3.584-8,8v128c0,4.416,3.584,8,8,8h64v-16h-56V64h256v80h16V56C416,51.584,412.416,48,408,48z" fill="#1a84db"/>
	</g>
</g>
<g>
	<g>
		<path d="M504,440h-8V240h-16v200H336.024c-0.976,0-1.952,0.176-2.856,0.528L313.656,448H197.6l-20.936-7.528    C175.8,440.16,174.88,440,173.96,440H32V176h48v-16H24c-4.416,0-8,3.584-8,8v272H8c-4.416,0-8,3.584-8,8v26.504    c0,1.816,0.616,3.576,1.752,4.992l10.784,13.496c1.512,1.904,3.808,3.008,6.248,3.008h474.44c2.016,0,3.96-0.76,5.44-2.136    l10.784-10c1.624-1.52,2.552-3.64,2.552-5.864v-30C512,443.584,508.416,440,504,440z M496,474.504L490.08,480H22.632L16,471.704    V456h16h16v8h16v-8h108.56l20.936,7.528C194.36,463.84,195.28,464,196.2,464h118.928c0.976,0,1.952-0.176,2.856-0.528l19.52-7.472    H416v8h16v-8h16v8h16v-8h32V474.504z" fill="#1a84db"/>
	</g>
</g>
<g>
	<g>
		<rect x="240" y="408" width="32" height="16" fill="#1a84db"/>
	</g>
</g>
<g>
	<g>
		<path d="M64,408V208h16v-16H56c-4.416,0-8,3.584-8,8v216c0,4.416,3.584,8,8,8h168v-16H64z" fill="#1a84db"/>
	</g>
</g>
<g>
	<g>
		<path d="M448,240v168H288v16h168c4.416,0,8-3.584,8-8V240H448z" fill="#1a84db"/>
	</g>
</g>
<g>
</g>
<g>
</g>
<g>
</g>
<g>
</g>
<g>
</g>
<g>
</g>
<g>
</g>
<g>
</g>
<g>
</g>
<g>
</g>
<g>
</g>
<g>
</g>
<g>
</g>
<g>
</g>
<g>
</g>
</svg>
