<svg xmlns="http://www.w3.org/2000/svg" width="512" height="512"><path d="M496 16H112c-8.824 0-16 7.176-16 16v176c0 8.824 7.176 16 16 16h88v-16h-88V32h384v176h-72v16h72c8.824 0 16-7.176 16-16V32c0-8.824-7.176-16-16-16zM96 336v-16H80v24c0 4.416 3.584 8 8 8h24v-16H96zM176 248h-24v16h16v16h16v-24c0-4.416-3.584-8-8-8zM106.334 314.345l39.993-39.993 11.313 11.314-39.993 39.993zM325.656 306.344l-16-16-11.312 11.312L308.688 312l-10.344 10.344 11.312 11.312 16-16a7.991 7.991 0 0 0 0-11.312z" fill="#1a84db"/><path d="M325.656 109.656l-11.312-11.312-16 16a7.991 7.991 0 0 0 0 11.312l16 16 11.312-11.312L315.312 120l10.344-10.344zM226.928 238.6A88.15 88.15 0 0 1 224 216c0-7.024.832-14.008 2.472-20.776 7.528-31.128 31.408-55.704 62.32-64.128l-4.208-15.44c-36.528 9.96-64.76 39.008-73.664 75.8-1.936 8-2.92 16.256-2.92 24.544 0 9.056 1.168 18.04 3.464 26.696 9.472 35.76 37.528 63.992 73.232 73.68l4.184-15.44c-30.2-8.2-53.944-32.088-61.952-62.336zM413.288 192.296c-8.744-37.496-37.296-66.928-74.52-76.816l-4.112 15.464c31.496 8.36 55.648 33.264 63.048 64.984A88.729 88.729 0 0 1 400 216c0 7.224-.88 14.408-2.608 21.36a87.822 87.822 0 0 1-63.312 63.848l4 15.496a103.81 103.81 0 0 0 74.832-75.472A104.108 104.108 0 0 0 416 216c0-8-.912-15.984-2.712-23.704z" fill="#1a84db"/><path d="M345.856 178.88l-34.392 41.272-17.808-17.808-11.312 11.312 24 24A7.993 7.993 0 0 0 312 240c.12 0 .24 0 .36-.008a8.004 8.004 0 0 0 5.784-2.872l40-48-12.288-10.24zM456 96c-13.232 0-24 10.768-24 24s10.768 24 24 24 24-10.768 24-24-10.768-24-24-24zm0 32c-4.408 0-8-3.592-8-8s3.592-8 8-8c4.408 0 8 3.592 8 8s-3.592 8-8 8zM408 48H136c-4.416 0-8 3.584-8 8v128c0 4.416 3.584 8 8 8h64v-16h-56V64h256v80h16V56c0-4.416-3.584-8-8-8z" fill="#1a84db"/><path d="M504 440h-8V240h-16v200H336.024c-.976 0-1.952.176-2.856.528L313.656 448H197.6l-20.936-7.528a7.982 7.982 0 0 0-2.704-.472H32V176h48v-16H24c-4.416 0-8 3.584-8 8v272H8c-4.416 0-8 3.584-8 8v26.504c0 1.816.616 3.576 1.752 4.992l10.784 13.496A7.965 7.965 0 0 0 18.784 496h474.44c2.016 0 3.96-.76 5.44-2.136l10.784-10A8.034 8.034 0 0 0 512 478v-30c0-4.416-3.584-8-8-8zm-8 34.504L490.08 480H22.632L16 471.704V456h32v8h16v-8h108.56l20.936 7.528a7.982 7.982 0 0 0 2.704.472h118.928c.976 0 1.952-.176 2.856-.528l19.52-7.472H416v8h16v-8h16v8h16v-8h32v18.504z" fill="#1a84db"/><path fill="#1a84db" d="M240 408h32v16h-32zM64 408V208h16v-16H56c-4.416 0-8 3.584-8 8v216c0 4.416 3.584 8 8 8h168v-16H64zM448 240v168H288v16h168c4.416 0 8-3.584 8-8V240h-16z"/></svg>